<svg width="30" height="31" viewBox="0 0 30 31" fill="none" xmlns="http://www.w3.org/2000/svg">
<path d="M12.5495 14.2274C14.0285 16.6874 13.811 19.5824 12.042 20.7524C10.273 21.8924 7.634 20.8274 6.1405 18.3674C4.6615 15.9074 4.8935 12.9824 6.6625 11.8424C8.4315 10.7024 11.0705 11.7674 12.5495 14.2274ZM15 24.4574C17.9 24.4574 18.625 23.3324 18.625 23.3324C18.625 23.3324 17.9 26.3324 15 26.3324C12.1 26.3324 11.375 23.3774 11.375 23.3324C11.375 23.3324 12.1 24.4574 15 24.4574ZM23.3375 11.8424C25.1065 12.9824 25.3385 15.9074 23.8595 18.3674C22.366 20.8274 19.727 21.8924 17.958 20.7524C16.189 19.5824 15.9715 16.6874 17.4505 14.2274C18.9295 11.7674 21.5685 10.7024 23.3375 11.8424ZM15 27.8324C18.625 27.8324 26.6 20.1224 26.6 14.3324C26.6 8.5424 21.3945 3.8324 15 3.8324C8.6055 3.8324 3.4 8.5424 3.4 14.3324C3.4 20.1224 11.375 27.8324 15 27.8324ZM15 0.832397C22.975 0.832397 29.5 6.8924 29.5 14.3324C29.5 20.4524 21.264 30.8324 15 30.8324C8.736 30.8324 0.5 20.4524 0.5 14.3324C0.5 6.8924 7.025 0.832397 15 0.832397Z" fill="#02E4C0"/>
</svg>
