<svg width="26" height="24" viewBox="0 0 26 24" fill="none" xmlns="http://www.w3.org/2000/svg">
<path d="M7.64636 13.7764L11.4197 10.003L3.16636 1.76302C2.52636 1.12302 1.41969 1.29636 1.01969 2.12302C0.073024 4.10969 0.419691 6.54969 2.05969 8.20302L7.64636 13.7764ZM16.6864 11.363C18.7264 12.3097 21.593 11.643 23.713 9.52302C26.2597 6.97635 26.753 3.32302 24.793 1.36302C22.8464 -0.583644 19.193 -0.103644 16.633 2.44302C14.513 4.56302 13.8464 7.42969 14.793 9.46969L2.71302 21.5497C2.46372 21.799 2.32366 22.1371 2.32366 22.4897C2.32366 22.8423 2.46372 23.1804 2.71302 23.4297C2.96233 23.679 3.30046 23.819 3.65302 23.819C4.00559 23.819 4.34372 23.679 4.59302 23.4297L12.8464 15.203L21.0864 23.443C21.2098 23.5665 21.3563 23.6644 21.5176 23.7312C21.6789 23.798 21.8518 23.8324 22.0264 23.8324C22.2009 23.8324 22.3738 23.798 22.5351 23.7312C22.6964 23.6644 22.8429 23.5665 22.9664 23.443C23.0898 23.3196 23.1877 23.173 23.2545 23.0117C23.3213 22.8505 23.3557 22.6776 23.3557 22.503C23.3557 22.3284 23.3213 22.1556 23.2545 21.9943C23.1877 21.833 23.0898 21.6865 22.9664 21.563L14.7264 13.323L16.6864 11.363Z" fill="#02E4C0"/>
</svg>
