<svg width="142" height="40" viewBox="0 0 142 40" fill="none" xmlns="http://www.w3.org/2000/svg">
<g clip-path="url(#clip0_13682_306)">
<path d="M9.68305 0C4.32762 0 0 4.30686 0 9.63661V40H40.1928V0H9.68305ZM29.2655 31.6016H8.76343C7.51924 31.6016 6.54552 30.6326 6.54552 29.3943C6.54552 28.1561 7.51924 27.1871 8.76343 27.1871H29.2114C30.4556 27.1871 31.4293 28.1561 31.4293 29.3943C31.4834 30.6326 30.5097 31.6016 29.2655 31.6016ZM29.2655 22.2342H8.76343C7.51924 22.2342 6.54552 21.2651 6.54552 20.0269C6.54552 18.7887 7.51924 17.8196 8.76343 17.8196H29.2114C30.4556 17.8196 31.4293 18.7887 31.4293 20.0269C31.4834 21.2113 30.5097 22.2342 29.2655 22.2342ZM29.2655 12.8129H8.76343C7.51924 12.8129 6.54552 11.8439 6.54552 10.6057C6.54552 9.36743 7.51924 8.39839 8.76343 8.39839H29.2114C30.4556 8.39839 31.4293 9.36743 31.4293 10.6057C31.4834 11.79 30.5097 12.8129 29.2655 12.8129Z" fill="#E836B5"/>
<path d="M45.7646 40H34.5669C26.5608 40 20.0693 33.5397 20.0693 25.572V14.428C20.0693 6.4603 26.5608 0 34.5669 0H45.7646C53.7707 0 60.2621 6.4603 60.2621 14.428V25.572C60.2621 33.5397 53.7707 40 45.7646 40Z" fill="#43B6FF"/>
<path d="M31.4834 8.23688L41.7074 18.4118C42.573 19.2732 42.573 20.673 41.7074 21.5343C40.8419 22.3957 39.4354 22.3957 38.5699 21.5343L28.3459 11.3594C27.4804 10.498 27.4804 9.09825 28.3459 8.23688C29.2114 7.37551 30.6179 7.37551 31.4834 8.23688Z" fill="white"/>
<path d="M49.7136 13.6205L41.7615 21.5343C40.896 22.3957 39.4896 22.3957 38.624 21.5343C37.7585 20.673 37.7585 19.2732 38.624 18.4119L46.5219 10.498C47.3875 9.63662 48.7939 9.63662 49.6595 10.498C50.5791 11.3594 50.5791 12.7591 49.7136 13.6205Z" fill="white"/>
<path d="M72.5417 14.0511C72.5417 14.8048 72.8663 15.397 73.4613 15.9354C74.0564 16.4737 74.8137 16.8506 75.6792 17.1198C76.5448 17.389 77.5185 17.712 78.6004 18.1427C79.6282 18.5733 80.6019 19.004 81.5215 19.4347C82.4412 19.8654 83.1444 20.5653 83.7394 21.5343C84.3345 22.4495 84.6591 23.5801 84.6591 24.8721C84.6591 27.0794 83.9558 28.856 82.5494 30.148C81.1429 31.4401 79.0332 32.14 76.2202 32.14C73.6777 32.14 71.5139 31.6554 69.6747 30.7402C68.9173 30.3095 68.3764 29.825 68.1059 29.2867C67.8354 28.6945 67.8895 28.1561 68.2141 27.5639C68.6469 26.6487 69.6747 26.541 71.1894 27.1332C73.0286 27.9946 74.7596 28.4253 76.3825 28.4253C77.6808 28.4253 78.7086 28.1561 79.4118 27.6716C80.1692 27.1871 80.5478 26.4334 80.5478 25.4643C80.5478 24.4953 80.1151 23.7416 79.3036 23.1494C78.4922 22.5572 77.4644 22.0727 76.3284 21.6958C75.1383 21.319 74.0023 20.8883 72.8122 20.4576C71.6221 19.9731 70.6484 19.2194 69.7829 18.1965C68.9714 17.1736 68.5387 15.8277 68.5387 14.2665C68.5387 12.2746 69.1878 10.7671 70.5402 9.58276C71.8926 8.45221 73.84 7.86002 76.4366 7.86002C78.7627 7.86002 80.7642 8.34454 82.4412 9.31358C83.8476 10.0673 84.2263 11.0363 83.6313 12.2207C83.1444 13.1898 82.0084 13.3513 80.3314 12.5976C78.8709 12.0054 77.4644 11.6824 76.112 11.6824C73.6777 11.5747 72.5417 12.4361 72.5417 14.0511Z" fill="white"/>
<path d="M87.3638 10.1211C87.3638 9.52891 87.5261 9.09823 87.8507 8.72137C88.1753 8.34452 88.6621 8.12918 89.2572 8.12918C89.8522 8.12918 90.3391 8.29069 90.7177 8.72137C91.0423 9.09823 91.2587 9.58275 91.2587 10.1211V25.9488C91.2587 26.9179 91.421 27.6177 91.6914 28.0484C92.016 28.4791 92.5029 28.6945 93.2061 28.6945C93.7471 28.6945 94.3421 28.5329 95.0454 28.2638C95.4781 28.1023 95.9109 28.0484 96.2895 28.1561C96.6682 28.2638 96.9928 28.5329 97.1551 28.9098C97.5337 29.9327 97.1551 30.7402 96.0732 31.3324C95.2076 31.8169 94.0175 32.0861 92.6111 32.0861C89.149 32.0861 87.4179 30.2019 87.4179 26.4872V10.1211H87.3638Z" fill="white"/>
<path d="M108.461 29.2328C107.325 31.2248 105.486 32.1938 102.943 32.1938C101.212 32.1938 99.8598 31.7631 98.8861 30.8479C97.9124 29.9327 97.4255 28.6945 97.4255 27.1871C97.4255 25.249 98.1288 23.7954 99.5352 22.934C100.942 22.0188 102.727 21.5882 104.837 21.5882C106.297 21.5882 107.487 21.642 108.461 21.8035V21.4266C108.461 20.3499 108.245 19.4886 107.758 18.8964C107.271 18.3042 106.351 17.9812 104.945 17.9812C104.62 17.9812 104.35 17.9812 104.079 18.035C103.809 18.035 103.538 18.0888 103.214 18.1965C102.943 18.2503 102.673 18.3042 102.51 18.4118L101.699 18.681C101.32 18.7887 101.05 18.8964 100.888 18.8964C100.455 19.0579 100.076 19.0579 99.6975 18.8964C99.3189 18.7349 99.0484 18.5195 98.9402 18.0888C98.6697 17.2813 98.9402 16.6353 99.8057 16.0431C101.05 15.1817 102.943 14.751 105.432 14.751C109.976 14.751 112.194 16.8506 112.194 21.1036V29.8789C112.194 30.4711 112.031 30.9556 111.707 31.3324C111.382 31.7093 110.949 31.8708 110.3 31.8708C109.705 31.8708 109.218 31.6554 108.894 31.2786C108.569 30.9017 108.407 30.4172 108.407 29.8789V29.2328H108.461ZM107.271 27.7793C108.082 26.8641 108.461 25.8412 108.461 24.6568V24.0646C107.704 23.9569 106.73 23.9031 105.378 23.9031C102.619 23.9031 101.266 24.8721 101.266 26.8102C101.266 27.5101 101.483 28.1023 101.97 28.533C102.456 28.9637 103.106 29.179 103.971 29.179C105.378 29.1252 106.459 28.6945 107.271 27.7793Z" fill="white"/>
<path d="M116.305 12.8667C116.305 12.2745 116.467 11.8439 116.792 11.467C117.116 11.0902 117.603 10.8748 118.198 10.8748C118.793 10.8748 119.28 11.0363 119.659 11.467C119.983 11.8439 120.2 12.3284 120.2 12.8667V14.9663H123.121C124.365 14.9663 124.96 15.5047 124.96 16.6352C124.96 17.7658 124.365 18.3042 123.121 18.3042H120.2V25.9488C120.2 26.9179 120.362 27.6177 120.632 28.0484C120.957 28.4791 121.444 28.6945 122.147 28.6945C122.688 28.6945 123.283 28.533 123.986 28.2638C124.419 28.1023 124.852 28.0484 125.23 28.1561C125.609 28.2638 125.88 28.533 126.042 28.9098C126.421 29.8789 126.096 30.6864 124.96 31.3324C124.04 31.8708 122.904 32.14 121.498 32.14C117.982 32.14 116.251 30.2019 116.251 26.3257V12.8667H116.305Z" fill="white"/>
<path d="M130.748 24.8183C130.802 26.1103 131.235 27.1332 132.046 27.8869C132.858 28.6406 133.94 29.0175 135.238 29.0175C136.266 29.0175 137.456 28.6945 138.917 28.1023C139.944 27.6716 140.648 27.8331 141.026 28.5868C141.243 28.9098 141.297 29.2867 141.134 29.7173C141.026 30.148 140.702 30.471 140.269 30.7402C138.917 31.6554 137.131 32.0861 134.805 32.0861C132.209 32.0861 130.261 31.3324 128.909 29.825C127.557 28.3176 126.853 26.1642 126.853 23.4185C126.853 20.7268 127.557 18.6272 129.017 17.0121C130.478 15.397 132.425 14.5895 134.859 14.5895C137.077 14.5895 138.808 15.2355 140.053 16.4737C141.297 17.712 141.946 19.3809 141.946 21.4266C141.946 22.0727 141.892 22.611 141.784 23.0417C141.621 23.6339 141.351 24.0646 141.026 24.3338C140.702 24.6029 140.161 24.7644 139.512 24.7644H130.748V24.8183ZM131.992 18.8963C131.289 19.65 130.856 20.7268 130.748 22.1265H138.376C138.376 21.9111 138.43 21.5881 138.43 21.2651C138.43 20.2422 138.159 19.3809 137.564 18.7887C136.969 18.1426 136.104 17.8196 134.968 17.8196C133.723 17.8196 132.75 18.1426 131.992 18.8963Z" fill="white"/>
</g>
<defs>
<clipPath id="clip0_13682_306">
<rect width="142" height="40" fill="white"/>
</clipPath>
</defs>
</svg>
